<?xml version="1.0" ?><svg id="Layer_1" style="enable-background:new 0 0 56.69 56.69;" version="1.1" viewBox="0 0 56.69 56.69" xml:space="preserve" xmlns="http://www.w3.org/2000/svg" xmlns:xlink="http://www.w3.org/1999/xlink"><g id="XMLID_2_"><path d="M11.5173,26.9567c-0.7891-0.2162-1.3236,0.1957-1.6341,1.2595L8.6378,32.445   c-2.0242-3.8236-2.4746-4.674-2.5903-4.8747l0.0071-0.0035c-0.2121-0.4236-0.8255-0.7292-1.4448-0.4837   c-0.7769,0.295-1.0563,1.0051-0.7391,1.9205c0.0336,0.0682,3.3546,6.8269,3.3965,6.9135c0,0,0.0707,0.1851,0.0828,0.2519   c0,0,0.0265,0.1597,0.0286,0.1597c-0.0057,0.2187-0.0745,0.3967-0.1973,0.5133c-0.1247,0.1162-0.2955,0.1766-0.4995,0.1643   c0,0-0.5349-0.0127-0.5978-0.0106c-0.6243,0.077-1.0346,0.4589-1.0978,1.0196c-0.0454,0.3688,0.0735,0.6963,0.3441,0.9475   c0.3084,0.2851,0.7938,0.4328,1.3886,0.4328c0.2745,0,0.5723-0.0314,0.8864-0.0954c0.9295-0.1841,1.5373-0.614,2.0867-2.3554   l2.6104-8.2079c0.15-0.4826,0.1355-0.9097-0.0435-1.2372C12.1075,27.2305,11.8579,27.0478,11.5173,26.9567z" id="XMLID_16_"/><path d="M19.8513,27.5922c-0.8408-0.6366-2.0201-0.8429-3.4085-0.5928c-1.7645,0.3056-2.8251,1.5605-3.0669,3.6286   c-0.2902,2.4289,0.1194,4.2681,1.1846,5.3184c0.6594,0.6511,1.5693,0.986,2.6618,0.986c0.2568,0,0.5238-0.0184,0.8-0.0558   c2.2084-0.3105,3.0314-1.5354,3.0314-2.2349c0-0.6013-0.3752-1.0726-0.9012-1.1439c-0.3566-0.0717-0.6368,0.0477-1.1113,0.4706   c-0.6469,0.5639-1.3927,0.7924-2.0445,0.6281c-0.4851-0.1236-0.8615-0.4564-1.0267-0.8931   c-0.032-0.1282-0.0556-0.2226-0.0786-0.2908h0.0011c-0.0221-0.1166-0.089-0.4713,0.0272-0.5483l4.3073-0.0032   c0.3826,0,0.6746-0.0403,0.8576-0.2385c0.2862-0.3197,0.2761-1.0577,0.1618-2.2247   C21.1264,29.1612,20.6439,28.1911,19.8513,27.5922z M18.7131,30.8679h-3.4325c-0.0196-0.0565-0.0127-0.1685,0.0203-0.331   c0.0426-0.177,0.0858-0.33,0.2185-0.5476l0.1318-0.2038c0.2323-0.2932,0.5554-0.495,0.9362-0.5843   c0.5785-0.1406,1.0853-0.0781,1.4646,0.1823c0.3464,0.2371,0.5631,0.6214,0.6274,1.1136   C18.707,30.6899,18.7136,30.8033,18.7131,30.8679z" id="XMLID_13_"/><path d="M25.7285,24.7045l-0.0055-0.0442c-0.0747-0.2957-0.3125-0.5511-0.6363-0.6833l-0.0005-0.0004   c-0.3959-0.1604-0.8465-0.1187-1.236,0.1134c-0.3877,0.2293-0.5531,0.5826-0.5531,1.1807l0.0021,10.4177   c0.059,0.3883,0.0636,0.4017,0.0669,0.4105c0.0894,0.3127,0.319,0.5737,0.6297,0.7158c0.1687,0.0777,0.3503,0.1162,0.5326,0.1162   c0.1888,0,0.3782-0.0413,0.5538-0.124c0.4467-0.1929,0.7133-0.6338,0.7133-1.1789l-0.0016-10.434   C25.794,25.1941,25.7318,24.7278,25.7285,24.7045z" id="XMLID_12_"/><path d="M33.3826,26.8924c-1.0139-0.206-1.8774-0.0367-2.7311,0.5423c0,0-0.071,0.0594-0.091,0.0724l-0.0827,0.0413   l-0.0917-0.2144l-0.0768-0.1148c-0.272-0.4232-0.9991-0.6281-1.6456-0.2586c-0.3798,0.2144-0.5209,0.5345-0.5209,1.1817v10.198   c0,0.6303,0.216,1.0401,0.6571,1.2506c0.2016,0.1017,0.4181,0.1526,0.6322,0.1526c0.1784,0,0.3554-0.0353,0.5204-0.107   c0.3167-0.1381,0.5483-0.3883,0.641-0.7122l0.0639-0.4621l-0.0004-1.7753l-0.0173-0.2586l0.0433-0.1922l0.1187,0.0791   c0,0,0.0616,0.0403,0.1143,0.088l0.1074,0.0724l0.2258,0.1194c0.9039,0.4278,2.1139,0.3798,3.0826-0.1215   c1.2203-0.6363,1.8256-1.7562,1.9629-3.6311C36.5804,29.1248,35.7094,27.3449,33.3826,26.8924z M34.7571,31.8762   c-0.0168,1.9268-0.4277,2.6433-1.5156,2.6433c-0.9929,0-1.4656-0.638-1.5327-2.0685l-0.0021-0.042   c-0.0049-0.124-0.0166-0.5073-0.0166-0.5073c0.0002-0.0113,0.0168-0.4254,0.0164-0.4314c0.0991-1.7841,0.4891-2.1999,1.1782-2.3434   c0.5319-0.1247,0.9334-0.0696,1.227,0.1671C34.5718,29.6639,34.7769,30.4843,34.7571,31.8762z" id="XMLID_9_"/><path d="M37.9826,34.2888c-0.6205,0-1.1065,0.4854-1.1065,1.1047c0,0.6207,0.4859,1.1068,1.1065,1.1068   c0.6101,0,1.1065-0.4964,1.1065-1.1068C39.0891,34.7845,38.5927,34.2888,37.9826,34.2888z" id="XMLID_8_"/><path d="M38.2274,30.6323c0.1521,0.2897,0.4215,0.4685,0.7179,0.4787c0.0164,0.0011,0.0314,0.0018,0.0473,0.0018   c0.1622,0,0.4119-0.077,3.1084-0.9433c0.9339-0.2982,1.1862-0.3787,1.2612-0.4038c0.3897-0.0996,0.6587-0.455,0.6854-0.9062   c0.0247-0.46-0.2231-0.868-0.6121-1.0136c-0.5992-0.2441-0.8103-0.3303-0.8949-0.3604l0.0012-0.0028   c-3.2128-1.3255-3.2283-1.3259-3.4133-1.328c-0.2998-0.0138-0.5734,0.142-0.7521,0.4236   c-0.3376,0.5427-0.4672,2.1339-0.3575,3.1955C38.0624,30.1631,38.1326,30.4518,38.2274,30.6323z" id="XMLID_7_"/><path d="M44.9784,30.5885c-0.4291-0.1657-0.8924-0.0565-1.1508,0.2671c0,0-0.4204,0.4992-0.5706,0.6765   l-0.0541,0.0636c-2.2487,2.6391-2.2566,2.662-2.3172,2.8373c-0.0431,0.1169-0.0581,0.2371-0.0449,0.3536   c0.0159,0.1692,0.0899,0.3377,0.2148,0.4882c0.4985,0.5921,2.6567,1.4135,3.6155,1.4135c0.0726,0,0.1385-0.0046,0.1961-0.0145   c0.33-0.0601,0.5704-0.2491,0.6787-0.5381c0.0597-0.1745,0.0645-0.1887,0.0733-3.2912c0,0,0.0069-1.286,0.0074-1.3248   C45.6523,31.1156,45.3978,30.7499,44.9784,30.5885z" id="XMLID_6_"/><path d="M45.1842,18.0206l-0.0037-0.017c-0.0828-0.3021-0.3204-0.5229-0.6522-0.6055   c-0.8841-0.2197-4.1149,0.6889-4.7386,1.3326c-0.2268,0.236-0.3188,0.543-0.2337,0.8553c0.0936,0.1925,3.6101,5.7261,4.0095,6.3546   c0.3551,0.5752,0.7375,0.8645,1.1397,0.8645c0.0896,0,0.18-0.0141,0.2713-0.0431c0.5022-0.1544,0.7368-0.6479,0.697-1.4665   C45.6179,24.017,45.2337,18.3061,45.1842,18.0206z" id="XMLID_5_"/><path d="M47.3887,28.3783l-0.2595,0.2812l0.7089-0.2636c0.1526-0.0569,0.4582-0.1307,0.944-0.2462   c3.3591-0.8136,3.3907-0.8341,3.5452-0.9344c0.2498-0.1699,0.3761-0.4476,0.3563-0.7709l0.0005-0.0332l-0.0016-0.0141   c-0.0903-0.8585-1.5274-2.9793-2.2617-3.3372c-0.3031-0.147-0.6108-0.1332-0.8638,0.0374   c-0.1544,0.1007-0.1917,0.1498-1.9948,2.6161c0,0-0.7511,1.0231-0.7859,1.068c-0.2572,0.312-0.265,0.756-0.0198,1.1319   C46.9137,28.1543,47.1425,28.3168,47.3887,28.3783z" id="XMLID_4_"/><path d="M52.4852,31.1986c-0.1443-0.1078-0.1562-0.1166-3.1098-1.0874c-0.4759-0.1569-1.2026-0.3971-1.2561-0.4176   c-0.3766-0.1445-0.8023-0.0148-1.0841,0.3321c-0.2909,0.3547-0.3294,0.8316-0.0989,1.1828l0.5024,0.8175   c1.7576,2.8549,1.833,2.9634,1.9827,3.0803c0.145,0.1138,0.3135,0.171,0.4932,0.171c0.1166,0,0.2378-0.024,0.3604-0.0731   c0.7716-0.3081,2.3907-2.3653,2.511-3.1916C52.8309,31.684,52.723,31.3887,52.4852,31.1986z" id="XMLID_3_"/></g></svg>